<?xml version="1.0" encoding="utf-8"?>
<!-- Designed by Vexels.com - 2016 All Rights Reserved - https://vexels.com/terms-and-conditions/  -->

<svg version="1.1" id="Capa_1" xmlns="http://www.w3.org/2000/svg" xmlns:xlink="http://www.w3.org/1999/xlink" x="0px" y="0px"
	 width="1200px" height="1200px" viewBox="0 0 1200 1200" enable-background="new 0 0 1200 1200" xml:space="preserve">
<g>
	<path d="M599.987,50L123.683,324.997v550.006L599.987,1150l476.33-274.997V324.997L599.987,50z M1037.9,852.803L599.987,1105.61
		L162.121,852.803V347.176l437.866-252.82l437.914,252.82V852.803z"/>
	<path d="M195.503,366.452v467.063l404.483,233.543l404.511-233.543V366.452L599.987,132.921L195.503,366.452z M966.08,811.348
		L599.987,1022.69L233.926,811.348V388.64l366.061-211.342L966.08,388.64V811.348z"/>
	<polygon points="612.213,943.634 905.223,774.459 905.223,442.904 612.213,612.46 	"/>
	<polygon points="593.004,579.181 884.215,410.658 600.664,246.915 309.419,415.073 	"/>
	<polygon points="296.071,774.459 573.809,934.816 573.809,612.46 296.071,451.757 	"/>
</g>
</svg>
